<?xml version="1.0" encoding="utf-8"?>
<!-- Generator: Adobe Illustrator 22.0.1, SVG Export Plug-In . SVG Version: 6.00 Build 0)  -->
<svg version="1.1" id="Слой_1" xmlns="http://www.w3.org/2000/svg" xmlns:xlink="http://www.w3.org/1999/xlink" x="0px" y="0px"
	 viewBox="0 0 500 130" style="enable-background:new 0 0 500 130;" xml:space="preserve">
<style type="text/css">
	.st0{fill:#FFFFFF;}
	.st1{enable-background:new    ;}
</style>
<title>button</title>
<g id="Слой_2_1_">
	<path class="st0" d="M499,1v128H1V1H499 M500,0H0v130h500V0z"/>
	<g class="st1">
		<path class="st0" d="M127.6,48.5v34.9h-4.3V48.5h-12.1v-4.1h28.4v4.1H127.6z"/>
	</g>
	<g class="st1">
		<path class="st0" d="M163,79.3h4.6v4.1h-13.5v-4.1h4.6V48.5h-4.6v-4.1h13.5v4.1H163V79.3z"/>
	</g>
	<g class="st1">
		<path class="st0" d="M201.4,44c5.9,0,10.8,2.2,14.7,6.5l-2.8,2.6c-3.2-3.3-7.2-5-11.9-5c-4.3,0-8,1.5-11,4.5
			c-3,3-4.5,6.8-4.5,11.3c0,4.5,1.5,8.2,4.5,11.3c3,3,6.7,4.5,11,4.5c4.8,0,8.7-1.7,11.9-5l2.8,2.7c-3.9,4.3-8.8,6.4-14.7,6.4
			c-5.5,0-10.2-1.9-14-5.8c-3.9-3.9-5.8-8.6-5.8-14.1c0-5.5,1.9-10.2,5.8-14.1C191.2,46,195.9,44,201.4,44z"/>
		<path class="st0" d="M256.7,83.4L248.8,71c-1.4-2.2-2.6-3.6-3.5-4.3c-0.9-0.7-2.2-1.1-4.1-1.1h-6.3v17.8h-4.3v-39h4.3v17.1h5.7
			c1.9,0,3.2-0.3,4.1-1c0.9-0.7,2-2.1,3.5-4.4l7.5-11.7h5l-8.6,13.2c-1.2,1.8-2.2,3.1-3,4c-0.7,0.8-1.5,1.4-2.3,1.8
			c1,0.3,1.9,0.9,2.7,1.8c0.8,0.9,1.8,2.3,3.1,4.3l9,13.9H256.7z"/>
		<path class="st0" d="M279.8,61.7h19.1v4.1h-19.1v13.6h20.3v4.1h-24.7v-39h24.7v4.1h-20.3V61.7z"/>
		<path class="st0" d="M327.2,48.5v34.9h-4.3V48.5h-12.1v-4.1h28.4v4.1H327.2z"/>
		<path class="st0" d="M364.2,44h0.6c2.7,0,5.4,0.6,7.9,1.7c2.5,1.2,4.6,2.7,6.2,4.8l-2.8,2.6c-1.3-1.6-3-2.8-5.1-3.7
			c-2-0.9-4.1-1.3-6.2-1.3h-0.6c-2.3,0-4.4,0.6-6.3,1.8c-1.9,1.2-2.8,2.9-2.8,5c0,1.7,0.7,3,2,3.9c1.4,0.9,3.5,1.5,6.3,1.9l4.2,0.6
			c4.1,0.5,7.2,1.6,9.4,3.4c2.1,1.7,3.2,4.3,3.2,7.7c0,3.4-1.4,6.2-4.1,8.3c-2.8,2.1-6.2,3.2-10.2,3.2h-0.3c-3.7,0-7-0.8-9.7-2.3
			c-2.7-1.5-4.7-3.6-6-6.2l2.8-2.6c0.9,2.1,2.5,3.8,4.7,5.1c2.2,1.3,4.9,1.9,8.1,1.9h0.3c2.9,0,5.2-0.7,7.2-2
			c1.9-1.3,2.9-3.1,2.9-5.4c0-2.1-0.7-3.7-2.2-4.8s-3.6-1.8-6.5-2.3l-4.2-0.5c-4-0.5-7.1-1.6-9.1-3.1c-2-1.6-3.1-3.8-3.1-6.6
			c0-3.3,1.3-5.9,3.9-7.9C357.4,45.1,360.5,44,364.2,44z"/>
	</g>
</g>
</svg>
